<svg width="57" height="56" viewBox="0 0 57 56" fill="none" xmlns="http://www.w3.org/2000/svg">
<circle cx="28.6308" cy="28.2769" r="27.6923" fill="#A6C2DF"/>
<path d="M41.8 23.3936V32.8C41.8 33.6487 41.4628 34.4626 40.8627 35.0627C40.2626 35.6629 39.4486 36 38.6 36H19.4C18.5513 36 17.7373 35.6629 17.1372 35.0627C16.5371 34.4626 16.2 33.6487 16.2 32.8V23.2C16.2 22.3513 16.5371 21.5374 17.1372 20.9373C17.7373 20.3371 18.5513 20 19.4 20H38.4064L36.8064 21.6H19.4C18.9756 21.6 18.5686 21.7686 18.2686 22.0686C17.9685 22.3687 17.8 22.7756 17.8 23.2V32.8C17.8 33.2243 17.9685 33.6313 18.2686 33.9314C18.5686 34.2314 18.9756 34.4 19.4 34.4H38.6C39.0243 34.4 39.4313 34.2314 39.7313 33.9314C40.0314 33.6313 40.2 33.2243 40.2 32.8V24.9936L41.8 23.3936ZM19.4 25.6C19.4 25.3878 19.4842 25.1843 19.6343 25.0343C19.7843 24.8843 19.9878 24.8 20.2 24.8H23.4C23.6121 24.8 23.8156 24.8843 23.9656 25.0343C24.1157 25.1843 24.2 25.3878 24.2 25.6C24.2 25.8122 24.1157 26.0157 23.9656 26.1657C23.8156 26.3157 23.6121 26.4 23.4 26.4H20.2C19.9878 26.4 19.7843 26.3157 19.6343 26.1657C19.4842 26.0157 19.4 25.8122 19.4 25.6ZM19.4 30.4C19.4 30.1878 19.4842 29.9843 19.6343 29.8343C19.7843 29.6843 19.9878 29.6 20.2 29.6H27.4C27.6121 29.6 27.8156 29.6843 27.9656 29.8343C28.1157 29.9843 28.2 30.1878 28.2 30.4C28.2 30.6122 28.1157 30.8157 27.9656 30.9657C27.8156 31.1157 27.6121 31.2 27.4 31.2H20.2C19.9878 31.2 19.7843 31.1157 19.6343 30.9657C19.4842 30.8157 19.4 30.6122 19.4 30.4ZM41.5664 20.2336C41.6409 20.3079 41.7 20.3962 41.7403 20.4934C41.7806 20.5906 41.8014 20.6948 41.8014 20.8C41.8014 20.9052 41.7806 21.0094 41.7403 21.1066C41.7 21.2038 41.6409 21.2921 41.5664 21.3664L31.9664 30.9664C31.8161 31.1166 31.6124 31.201 31.4 31.201C31.1875 31.201 30.9838 31.1166 30.8336 30.9664C30.6833 30.8162 30.5989 30.6124 30.5989 30.4C30.5989 30.1876 30.6833 29.9838 30.8336 29.8336L40.4336 20.2336C40.5079 20.1591 40.5961 20.1 40.6933 20.0597C40.7905 20.0193 40.8947 19.9986 41 19.9986C41.1052 19.9986 41.2094 20.0193 41.3066 20.0597C41.4038 20.1 41.492 20.1591 41.5664 20.2336Z" fill="#112D4E"/>
</svg>
