<svg width="57" height="56" viewBox="0 0 57 56" fill="none" xmlns="http://www.w3.org/2000/svg">
<circle cx="28.6308" cy="28.2769" r="27.6923" fill="#A6C2DF"/>
<g clip-path="url(#clip0_34_96)">
<path d="M36.6785 26.7192C36.6785 26.976 36.6024 27.2269 36.4597 27.4404C36.3171 27.6539 36.1144 27.8203 35.8772 27.9185C35.64 28.0168 35.379 28.0425 35.1272 27.9924C34.8754 27.9423 34.6441 27.8187 34.4625 27.6371C34.281 27.4556 34.1574 27.2243 34.1073 26.9725C34.0572 26.7207 34.0829 26.4597 34.1812 26.2225C34.2794 25.9853 34.4458 25.7826 34.6593 25.6399C34.8727 25.4973 35.1237 25.4212 35.3804 25.4212C35.7247 25.4212 36.0549 25.5579 36.2983 25.8014C36.5417 26.0448 36.6785 26.375 36.6785 26.7192ZM31.7458 20.2289H26.5535C26.3469 20.2289 26.1488 20.3109 26.0028 20.457C25.8567 20.603 25.7747 20.8011 25.7747 21.0077C25.7747 21.2143 25.8567 21.4124 26.0028 21.5584C26.1488 21.7045 26.3469 21.7866 26.5535 21.7866H31.7458C31.9524 21.7866 32.1505 21.7045 32.2965 21.5584C32.4426 21.4124 32.5247 21.2143 32.5247 21.0077C32.5247 20.8011 32.4426 20.603 32.2965 20.457C32.1505 20.3109 31.9524 20.2289 31.7458 20.2289ZM43.9477 26.2V30.3539C43.9477 31.1113 43.6469 31.8376 43.1113 32.3732C42.5757 32.9088 41.8494 33.2096 41.092 33.2096H40.6026L38.4374 39.2729C38.3113 39.626 38.079 39.9314 37.7725 40.1473C37.466 40.3632 37.1002 40.479 36.7252 40.4789H35.0741C34.6992 40.479 34.3334 40.3632 34.0268 40.1473C33.7203 39.9314 33.4881 39.626 33.3619 39.2729L33.0517 38.4019H25.2476L24.9374 39.2729C24.8113 39.626 24.579 39.9314 24.2725 40.1473C23.966 40.3632 23.6002 40.479 23.2252 40.4789H21.5741C21.1992 40.479 20.8334 40.3632 20.5268 40.1473C20.2203 39.9314 19.9881 39.626 19.8619 39.2729L18.2147 34.6609C16.5992 32.8492 15.6205 30.559 15.4277 28.1393C14.9632 28.2947 14.5593 28.5921 14.2731 28.9894C13.9868 29.3868 13.8326 29.8641 13.8324 30.3539C13.8324 30.5604 13.7503 30.7585 13.6042 30.9046C13.4582 31.0506 13.2601 31.1327 13.0535 31.1327C12.8469 31.1327 12.6488 31.0506 12.5028 30.9046C12.3567 30.7585 12.2747 30.5604 12.2747 30.3539C12.2747 29.452 12.5878 28.5781 13.1605 27.8814C13.7332 27.1846 14.5299 26.7083 15.4147 26.5336C15.5969 23.7021 16.8493 21.0458 18.9178 19.1037C20.9863 17.1615 23.7161 16.0787 26.5535 16.075H40.0535C40.2601 16.075 40.4582 16.1571 40.6042 16.3031C40.7503 16.4492 40.8324 16.6473 40.8324 16.8539C40.8324 17.0604 40.7503 17.2585 40.6042 17.4046C40.4582 17.5506 40.2601 17.6327 40.0535 17.6327H36.3955C38.423 18.8315 40.0188 20.6414 40.9544 22.8029C41.0323 22.9821 41.1049 23.1625 41.1724 23.3455C41.9156 23.3665 42.6213 23.6764 43.1395 24.2094C43.6577 24.7425 43.9477 25.4566 43.9477 26.2ZM42.39 26.2C42.39 25.8557 42.2533 25.5256 42.0098 25.2821C41.7664 25.0387 41.4362 24.9019 41.092 24.9019H40.6169C40.451 24.9021 40.2894 24.8493 40.1556 24.7513C40.0218 24.6532 39.9228 24.515 39.8731 24.3567C39.774 24.0396 39.6579 23.728 39.5252 23.4234C38.7807 21.7031 37.5492 20.2382 35.9823 19.2093C34.4155 18.1803 32.5818 17.6323 30.7074 17.6327H26.5535C24.6892 17.6325 22.8651 18.1749 21.3037 19.1936C19.7423 20.2123 18.5111 21.6634 17.7603 23.3699C17.0094 25.0763 16.7714 26.9644 17.0752 28.8038C17.379 30.6432 18.2115 32.3545 19.4712 33.7289C19.5411 33.8037 19.595 33.8921 19.6296 33.9885L21.3287 38.7446C21.3461 38.796 21.3791 38.8406 21.4231 38.8723C21.4671 38.9039 21.5199 38.921 21.5741 38.9212H23.2252C23.279 38.9213 23.3314 38.9048 23.3754 38.8739C23.4193 38.8429 23.4526 38.7992 23.4706 38.7485L23.9651 37.3635C24.0188 37.2118 24.1181 37.0804 24.2494 36.9874C24.3807 36.8944 24.5376 36.8444 24.6986 36.8442H33.6008C33.7617 36.8444 33.9186 36.8944 34.0499 36.9874C34.1812 37.0804 34.2805 37.2118 34.3342 37.3635L34.8287 38.7511C34.8467 38.8017 34.88 38.8455 34.924 38.8765C34.9679 38.9074 35.0203 38.9239 35.0741 38.9238H36.7252C36.779 38.9239 36.8314 38.9074 36.8754 38.8765C36.9193 38.8455 36.9526 38.8017 36.9706 38.7511L39.3201 32.1712C39.3737 32.0195 39.473 31.8881 39.6044 31.7951C39.7357 31.7021 39.8926 31.6521 40.0535 31.6519H41.092C41.4362 31.6519 41.7664 31.5152 42.0098 31.2717C42.2533 31.0283 42.39 30.6981 42.39 30.3539V26.2Z" fill="#112D4E"/>
</g>
<defs>
<clipPath id="clip0_34_96">
<rect width="33.2308" height="33.2308" fill="white" transform="translate(12.0154 11.6615)"/>
</clipPath>
</defs>
</svg>
