<svg width="56" height="56" viewBox="0 0 56 56" fill="none" xmlns="http://www.w3.org/2000/svg">
<circle cx="27.6923" cy="27.6923" r="27.6923" fill="#A6C2DF"/>
<path d="M14.375 25.9167H40.625M20.2083 32.375H20.2229M26.0417 32.375H28.9583M14.375 23.3333C14.375 22.3056 14.8359 21.32 15.6564 20.5933C16.4769 19.8666 17.5897 19.4583 18.75 19.4583H36.25C37.4103 19.4583 38.5231 19.8666 39.3436 20.5933C40.1641 21.32 40.625 22.3056 40.625 23.3333V33.6667C40.625 34.6944 40.1641 35.68 39.3436 36.4067C38.5231 37.1334 37.4103 37.5417 36.25 37.5417H18.75C17.5897 37.5417 16.4769 37.1334 15.6564 36.4067C14.8359 35.68 14.375 34.6944 14.375 33.6667V23.3333Z" stroke="#112D4E" stroke-width="2" stroke-linecap="round" stroke-linejoin="round"/>
</svg>
