<svg width="80" height="56" viewBox="0 0 80 56" fill="none" xmlns="http://www.w3.org/2000/svg">
<circle cx="27.6923" cy="27.6923" r="27.6923" fill="#A6C2DF"/>
<path d="M26.0017 27.09L25.113 24.094C26.0533 23.884 28.78 22.8678 29.4917 24.6843C29.8405 26.6467 26.9368 26.8742 26.0017 27.09ZM26.375 28.6218L27.3502 31.9223C28.4713 31.6563 31.8658 31.3857 31.5365 29.1795C30.9772 27.2358 27.5 28.3558 26.375 28.6218ZM43 28C43 35.7315 36.0599 42 27.5 42C18.9401 42 12 35.7315 12 28C12 20.2685 18.9401 14 27.5 14C36.0599 14 43 20.2685 43 28ZM34.8095 28.7712C34.5732 27.4283 32.9482 26.327 31.5997 26.2022C32.4303 25.5372 32.8514 24.5677 32.336 23.2995C31.5571 21.7035 29.7669 21.3628 27.5762 21.693L26.871 19.2267L25.2112 19.614L25.9035 22.0733C25.4669 22.1725 25.0187 22.2577 24.5744 22.372L23.8807 19.9267L22.221 20.314L22.9249 22.7803C22.5671 22.8725 19.573 23.5655 19.573 23.5655L20.029 25.172C20.029 25.172 21.2483 24.8628 21.2367 24.8873C21.9135 24.7275 22.2326 25.0332 22.3811 25.3213L24.316 32.0798C24.3393 32.2758 24.3005 32.6095 23.8355 32.7227C23.8627 32.7367 22.6278 33.0038 22.6278 33.0038L22.8087 34.8763C22.8087 34.8763 25.7743 34.1903 26.1644 34.1017L26.8761 36.596L28.5359 36.2087L27.8242 33.6968C28.2806 33.6012 28.7249 33.5016 29.1572 33.3982L29.865 35.896L31.5248 35.5087L30.8131 33.0178C33.3732 32.4555 35.179 30.9995 34.8095 28.7712Z" fill="#112D4E"/>
</svg>
