<svg width="57" height="56" viewBox="0 0 57 56" fill="none" xmlns="http://www.w3.org/2000/svg">
<circle cx="28.6308" cy="28.2769" r="27.6923" fill="#A6C2DF"/>
<path d="M40.924 34.4467C40.1932 30.0847 38.1047 26.0645 34.956 22.9587C34.2666 22.288 33.9226 21.9533 33.1613 21.644C32.4 21.3333 31.7453 21.3333 30.4373 21.3333H27.5626C26.2546 21.3333 25.6 21.3333 24.8386 21.644C24.0786 21.9533 23.732 22.288 23.044 22.9587C19.8952 26.0645 17.8068 30.0847 17.076 34.4467C16.4266 38.364 20.04 41.3333 24.0773 41.3333H33.9226C37.9613 41.3333 41.576 38.364 40.9226 34.4467" stroke="#112D4E" stroke-width="1.5" stroke-linecap="round" stroke-linejoin="round"/>
<path d="M31.1693 29.2253C30.8813 28.16 29.4133 27.2 27.6519 27.9187C25.8906 28.6373 25.6119 30.948 28.2746 31.1947C29.4799 31.3053 30.2639 31.0653 30.9826 31.744C31.7026 32.4213 31.8359 34.308 29.9973 34.816C28.1613 35.324 26.3413 34.5307 26.1439 33.4027M28.7893 26.656V27.6707M28.7893 34.972V35.9907M22.6759 17.924C22.3999 17.524 22.0013 16.98 22.8253 16.8573C23.6719 16.7293 24.5506 17.308 25.4119 17.2973C26.1893 17.2853 26.5853 16.94 27.0119 16.4467C27.4599 15.928 28.1533 14.6667 28.9999 14.6667C29.8466 14.6667 30.5399 15.928 30.9879 16.4467C31.4146 16.94 31.8106 17.2867 32.5879 17.296C33.4493 17.3093 34.3279 16.7293 35.1746 16.856C35.9986 16.98 35.5999 17.5227 35.3239 17.9227L34.0813 19.7347C33.5479 20.508 33.2826 20.8947 32.7253 21.1147C32.1679 21.3347 31.4493 21.3333 30.0106 21.3333H27.9893C26.5493 21.3333 25.8306 21.3333 25.2746 21.1147C24.7186 20.896 24.4519 20.5067 23.9186 19.7333L22.6759 17.924Z" stroke="#112D4E" stroke-width="1.5" stroke-linecap="round" stroke-linejoin="round"/>
</svg>
