<svg width="56" height="56" viewBox="0 0 56 56" fill="none" xmlns="http://www.w3.org/2000/svg">
<circle cx="27.6923" cy="27.6923" r="27.6923" fill="#A6C2DF"/>
<path d="M29.0002 26.1042C27.7625 26.1042 26.5755 26.5497 25.7003 27.3429C24.8252 28.136 24.3335 29.2117 24.3335 30.3333C24.3335 31.455 24.8252 32.5307 25.7003 33.3238C26.5755 34.1169 27.7625 34.5625 29.0002 34.5625C30.2378 34.5625 31.4248 34.1169 32.3 33.3238C33.1752 32.5307 33.6668 31.455 33.6668 30.3333C33.6668 29.2117 33.1752 28.136 32.3 27.3429C31.4248 26.5497 30.2378 26.1042 29.0002 26.1042ZM27.0002 30.3333C27.0002 29.8526 27.2109 29.3916 27.5859 29.0517C27.961 28.7118 28.4697 28.5208 29.0002 28.5208C29.5306 28.5208 30.0393 28.7118 30.4144 29.0517C30.7894 29.3916 31.0002 29.8526 31.0002 30.3333C31.0002 30.814 30.7894 31.275 30.4144 31.615C30.0393 31.9549 29.5306 32.1458 29.0002 32.1458C28.4697 32.1458 27.961 31.9549 27.5859 31.615C27.2109 31.275 27.0002 30.814 27.0002 30.3333Z" fill="#112D4E"/>
<path d="M36.368 17.1818L32.1293 11.7963L16.544 23.0797L15.68 23.0713V23.0833H15V37.5833H43V23.0833H41.7173L39.1653 16.3179L36.368 17.1818ZM38.9 23.0833H25.5293L35.488 20.0069L37.5173 19.4185L38.9 23.0833ZM33.7333 17.9963L23.4533 21.1718L31.5947 15.2775L33.7333 17.9963ZM17.6667 32.9542V27.71C18.2296 27.53 18.7409 27.2381 19.1631 26.8557C19.5853 26.4732 19.9077 26.01 20.1067 25.5H37.8933C38.0921 26.0103 38.4145 26.4737 38.8367 26.8563C39.2589 27.239 39.7703 27.5311 40.3333 27.7113V32.9554C39.7703 33.1356 39.2589 33.4277 38.8367 33.8103C38.4145 34.193 38.0921 34.6564 37.8933 35.1667H20.1093C19.9096 34.6564 19.5866 34.1929 19.164 33.8102C18.7414 33.4274 18.2299 33.135 17.6667 32.9542Z" fill="#112D4E"/>
</svg>
