<svg width="56" height="56" viewBox="0 0 56 56" fill="none" xmlns="http://www.w3.org/2000/svg">
<circle cx="27.6923" cy="27.6923" r="27.6923" fill="#A6C2DF"/>
<g clip-path="url(#clip0_143_164)">
<path d="M29.854 16.6583C29.0726 16.4988 28.2671 16.4183 27.4373 16.4167C20.7637 16.4167 15.354 21.8264 15.354 28.5C15.354 35.1736 20.7637 40.5833 27.4373 40.5833C34.111 40.5833 39.5207 35.1736 39.5207 28.5C39.5191 27.6703 39.4385 26.8647 39.279 26.0833" stroke="#112D4E" stroke-width="1.5" stroke-linecap="round" stroke-linejoin="round"/>
<path d="M27.4372 24.875C26.102 24.875 25.0205 25.687 25.0205 26.6875C25.0205 27.688 26.102 28.5 27.4372 28.5C28.7724 28.5 29.8538 29.312 29.8538 30.3125C29.8538 31.313 28.7724 32.125 27.4372 32.125M27.4372 24.875C28.4884 24.875 29.385 25.3789 29.7161 26.0833M27.4372 24.875V23.6667M27.4372 32.125C26.3859 32.125 25.4893 31.6211 25.1583 30.9167M27.4372 32.125V33.3333" stroke="#112D4E" stroke-width="1.5" stroke-linecap="round" stroke-linejoin="round"/>
<path d="M40.0415 16L34.9955 21.0484M33.9998 16.6308L34.1424 20.3645C34.1424 21.2454 34.668 21.794 35.6263 21.8628L39.4011 22.0405" stroke="#112D4E" stroke-width="1.5" stroke-linecap="round" stroke-linejoin="round"/>
</g>
<defs>
<clipPath id="clip0_143_164">
<rect width="32" height="32" fill="white" transform="translate(12.0625 11.4154)"/>
</clipPath>
</defs>
</svg>
