<svg width="56" height="56" viewBox="0 0 56 56" fill="none" xmlns="http://www.w3.org/2000/svg">
<circle cx="27.6923" cy="27.6923" r="27.6923" fill="#A6C2DF"/>
<path d="M29.9165 16.6583C29.1351 16.4988 28.3296 16.4183 27.4998 16.4167C20.8262 16.4167 15.4165 21.8264 15.4165 28.5C15.4165 35.1736 20.8262 40.5833 27.4998 40.5833C34.1735 40.5833 39.5832 35.1736 39.5832 28.5C39.5816 27.6703 39.501 26.8647 39.3415 26.0833" stroke="#112D4E" stroke-width="1.5" stroke-linecap="round" stroke-linejoin="round"/>
<path d="M27.4997 24.875C26.1645 24.875 25.083 25.687 25.083 26.6875C25.083 27.688 26.1645 28.5 27.4997 28.5C28.8349 28.5 29.9163 29.312 29.9163 30.3125C29.9163 31.313 28.8349 32.125 27.4997 32.125M27.4997 24.875C28.5509 24.875 29.4475 25.3789 29.7786 26.0833M27.4997 24.875V23.6667M27.4997 32.125C26.4484 32.125 25.5518 31.6211 25.2208 30.9167M27.4997 32.125V33.3333M33.5389 22.4607L38.5849 17.4123M39.5806 21.83L39.438 18.0962C39.438 17.2154 38.9124 16.6668 37.9542 16.5979L34.1793 16.4203" stroke="#112D4E" stroke-width="1.5" stroke-linecap="round" stroke-linejoin="round"/>
</svg>
