<svg width="56" height="56" viewBox="0 0 56 56" fill="none" xmlns="http://www.w3.org/2000/svg">
<circle cx="27.6923" cy="27.6923" r="27.6923" fill="#A6C2DF"/>
<g clip-path="url(#clip0_143_162)">
<path d="M37.3335 30.3333C37.6309 30.3337 37.9169 30.4475 38.1331 30.6517C38.3493 30.8558 38.4794 31.1348 38.4969 31.4316C38.5143 31.7285 38.4177 32.0208 38.2269 32.2488C38.036 32.4768 37.7653 32.6234 37.47 32.6585L37.3335 32.6667H21.4832L24.1583 35.3418C24.3676 35.5518 24.4891 35.8335 24.4981 36.1298C24.5072 36.4261 24.4031 36.7147 24.207 36.937C24.011 37.1593 23.7377 37.2987 23.4426 37.3268C23.1475 37.3549 22.8528 37.2697 22.6183 37.0883L22.5087 36.9915L18.0403 32.5232C17.2645 31.7485 17.7615 30.443 18.8138 30.3403L18.948 30.3333H37.3335ZM31.842 19.0085C32.0429 18.8076 32.3102 18.687 32.5937 18.6691C32.8772 18.6513 33.1575 18.7376 33.382 18.9117L33.4917 19.0085L37.96 23.4768C38.7358 24.2515 38.2388 25.557 37.1865 25.6597L37.0523 25.6667H18.6668C18.3695 25.6663 18.0835 25.5525 17.8672 25.3484C17.651 25.1442 17.5209 24.8652 17.5035 24.5684C17.486 24.2715 17.5826 23.9792 17.7735 23.7512C17.9643 23.5232 18.2351 23.3766 18.5303 23.3415L18.6668 23.3333H34.5172L31.842 20.6582C31.6233 20.4394 31.5004 20.1427 31.5004 19.8333C31.5004 19.524 31.6233 19.2273 31.842 19.0085Z" fill="#112D4E"/>
</g>
<defs>
<clipPath id="clip0_143_162">
<rect width="28" height="28" fill="white" transform="translate(14 14)"/>
</clipPath>
</defs>
</svg>
