<svg width="267" height="38" viewBox="0 0 267 38" fill="none" xmlns="http://www.w3.org/2000/svg">
<path d="M57.3071 7.21C56.4671 7.97 55.3771 8.39 54.2371 8.39C53.0971 8.39 52.0071 7.97 51.1671 7.21C50.7771 6.82 50.4671 6.35 50.2571 5.84C50.0571 5.33 49.9571 4.78 49.9771 4.22C49.9571 3.66 50.0571 3.11 50.2571 2.59C50.4571 2.07 50.7671 1.6 51.1571 1.2C52.0071 0.43 53.1071 0 54.2471 0C55.3871 0 56.4771 0.43 57.3171 1.2C57.7071 1.6 58.0171 2.07 58.2171 2.59C58.4171 3.11 58.5171 3.66 58.4971 4.22C58.5171 4.77 58.4171 5.32 58.2171 5.84C58.0171 6.36 57.7071 6.82 57.3171 7.21H57.3071ZM50.7371 37.42V11.73H57.7571V37.42H50.7371ZM70.6571 11.14V13.89C71.9171 11.49 74.5771 11.14 78.3671 11.14C79.6771 11.06 80.9971 11.26 82.2171 11.74C83.4371 12.22 84.5371 12.96 85.4471 13.91C87.1871 16.01 88.0671 18.68 87.9171 21.39V37.42H80.8971V22.17C80.8971 18.8 79.4271 17.12 76.4971 17.12C75.7771 17.08 75.0571 17.19 74.3771 17.45C73.7071 17.71 73.0971 18.11 72.5871 18.62C71.6171 19.76 71.1171 21.22 71.1971 22.71V37.42H64.1771V11.14H70.6571ZM103.637 31.24V37.27C102.547 37.49 101.437 37.59 100.327 37.56C95.0271 37.56 92.3671 34.95 92.3671 29.72V2.25L99.3871 0.66V11.73H103.687V17.22H99.3871V28.99C99.3871 30.66 100.257 31.49 102.007 31.49L103.637 31.24ZM131.917 26.58H113.127C113.247 28.13 113.957 29.57 115.107 30.62C116.147 31.39 117.387 31.86 118.677 31.99C119.967 32.12 121.277 31.88 122.447 31.31C123.327 30.87 124.017 30.13 124.397 29.22H131.467C130.747 31.78 129.167 34.02 126.987 35.57C124.727 37.2 121.997 38.05 119.197 38C117.447 38.06 115.717 37.75 114.097 37.1C112.477 36.45 111.017 35.47 109.807 34.22C107.447 31.56 106.147 28.13 106.147 24.59C106.147 21.05 107.447 17.62 109.807 14.96C111.007 13.7 112.457 12.71 114.067 12.05C115.677 11.39 117.417 11.08 119.157 11.13C120.887 11.07 122.607 11.38 124.207 12.04C125.807 12.7 127.247 13.68 128.427 14.94C130.837 17.54 132.127 20.98 132.007 24.52L131.907 26.58H131.917ZM119.107 16.72C117.687 16.66 116.297 17.13 115.207 18.02C114.157 18.94 113.457 20.2 113.227 21.57H124.997C124.787 20.21 124.107 18.96 123.067 18.05C121.957 17.14 120.547 16.66 119.107 16.72ZM143.487 37.41H136.467V0.64H143.487V37.41ZM156.937 37.41H149.917V0.64H156.937V37.41ZM169.937 7.21C169.097 7.97 168.007 8.39 166.867 8.39C165.727 8.39 164.637 7.97 163.797 7.21C163.407 6.82 163.097 6.35 162.897 5.84C162.697 5.33 162.597 4.78 162.617 4.22C162.597 3.66 162.697 3.11 162.897 2.59C163.097 2.07 163.407 1.6 163.797 1.2C164.627 0.43 165.727 0 166.867 0C168.007 0 169.097 0.43 169.937 1.2C170.327 1.6 170.637 2.07 170.837 2.59C171.037 3.11 171.137 3.66 171.117 4.22C171.137 4.77 171.037 5.32 170.837 5.84C170.637 6.36 170.327 6.82 169.937 7.22V7.21ZM163.357 37.41V11.73H170.377V37.42H163.357V37.41ZM18.9371 0.4C14.6371 0.4 10.4671 1.85 7.11712 4.51C3.75712 7.18 1.40712 10.89 0.467116 15.05C-0.482884 19.2 0.0271156 23.56 1.89712 27.39C3.77712 31.22 6.90711 34.31 10.7871 36.14V32.11H27.0771V36.14C30.9571 34.31 34.0871 31.22 35.9671 27.39C37.8471 23.56 38.3471 19.2 37.4071 15.05C36.4571 10.89 34.1171 7.18 30.7571 4.52C27.3971 1.85 23.2271 0.4 18.9371 0.4ZM26.0471 25.31C24.0971 27.06 21.5671 28.03 18.9271 28.03C16.2871 28.03 13.7571 27.06 11.8071 25.31C10.8971 24.4 10.1871 23.31 9.70712 22.12C9.23712 20.93 9.01712 19.65 9.05712 18.37C9.01712 17.08 9.23712 15.8 9.71712 14.6C10.1871 13.4 10.8971 12.3 11.8071 11.38C13.7371 9.59 16.2771 8.59 18.9271 8.59C21.5771 8.59 24.1171 9.59 26.0471 11.38C26.9571 12.3 27.6671 13.4 28.1371 14.6C28.6071 15.8 28.8271 17.08 28.7971 18.37C28.8371 19.65 28.6171 20.93 28.1471 22.13C27.6771 23.33 26.9571 24.41 26.0471 25.33V25.31Z" fill="#004A98"/>
<path d="M183.477 0.639999V13.88C183.477 13.66 183.857 13.26 183.987 13.1C184.187 12.86 184.407 12.65 184.647 12.46C185.887 11.5 187.507 11.2 189.037 11.08C190.777 10.94 192.537 10.99 194.227 11.46C194.277 11.48 194.337 11.49 194.387 11.51C194.587 11.57 194.777 11.63 194.977 11.7C196.217 12.16 197.357 12.94 198.267 13.89C200.007 15.99 200.757 17.94 200.737 21.37V37.4H193.717V22.15C193.717 18.78 192.247 17.1 189.317 17.1C188.597 17.06 187.877 17.17 187.197 17.43C186.527 17.69 185.917 18.09 185.407 18.6C184.437 19.74 183.937 21.2 184.017 22.69V37.4H176.997V0.639999H183.477Z" fill="#F8B42D"/>
<path d="M266.197 24.52C266.317 20.98 265.027 17.54 262.617 14.94C261.437 13.69 259.997 12.7 258.397 12.04C256.797 11.38 255.077 11.07 253.347 11.13C251.607 11.07 249.867 11.39 248.257 12.05C246.647 12.71 245.197 13.7 243.997 14.96C241.637 17.62 240.337 21.05 240.337 24.59C240.337 28.13 241.637 31.56 243.997 34.22C245.207 35.47 246.667 36.45 248.287 37.1C249.907 37.75 251.647 38.06 253.387 38C256.177 38.05 258.917 37.2 261.177 35.57C263.357 34.02 264.937 31.78 265.657 29.22H258.587C258.207 30.12 257.517 30.86 256.637 31.31C255.467 31.88 254.167 32.11 252.867 31.99C251.567 31.87 250.337 31.4 249.297 30.62C248.147 29.57 247.437 28.12 247.317 26.58H266.107L266.207 24.52H266.197ZM247.407 21.58C247.627 20.2 248.327 18.95 249.387 18.03C250.947 16.66 253.487 16.38 255.417 17.04C257.417 17.72 258.857 19.5 259.177 21.58H247.407Z" fill="#F8B42D"/>
<path d="M211.767 7.21C210.927 7.97 209.837 8.39 208.697 8.39C207.557 8.39 206.467 7.97 205.627 7.21C205.237 6.82 204.927 6.35 204.727 5.84C204.527 5.33 204.427 4.78 204.447 4.22C204.427 3.66 204.527 3.11 204.727 2.59C204.927 2.07 205.237 1.6 205.627 1.2C206.457 0.43 207.557 0 208.697 0C209.837 0 210.927 0.43 211.767 1.2C212.157 1.6 212.467 2.07 212.667 2.59C212.867 3.11 212.967 3.66 212.947 4.22C212.967 4.77 212.867 5.32 212.667 5.84C212.467 6.36 212.157 6.82 211.767 7.22V7.21Z" fill="#F8B42D"/>
<path d="M212.207 11.72H205.187V37.41H212.207V11.72Z" fill="#F8B42D"/>
<path d="M240.837 11.73L231.787 37.42H224.967L215.917 11.73H223.177L228.377 28.65L233.577 11.73H240.837Z" fill="#F8B42D"/>
</svg>
